<?xml version="1.0" encoding="UTF-8" standalone="no"?>
<!-- Created with Inkscape (http://www.inkscape.org/) -->

<svg
   width="15.887672mm"
   height="16.19385mm"
   viewBox="0 0 15.887672 16.19385"
   version="1.1"
   id="svg1"
   xml:space="preserve"
   sodipodi:docname="amtascript-icon-light.svg"
   inkscape:version="1.3.2 (091e20e, 2023-11-25, custom)"
   xmlns:inkscape="http://www.inkscape.org/namespaces/inkscape"
   xmlns:sodipodi="http://sodipodi.sourceforge.net/DTD/sodipodi-0.dtd"
   xmlns="http://www.w3.org/2000/svg"
   xmlns:svg="http://www.w3.org/2000/svg"><sodipodi:namedview
     id="namedview1"
     bordercolor="#000000"
     borderopacity="0.25"
     inkscape:showpageshadow="2"
     inkscape:pageopacity="0.0"
     inkscape:pagecheckerboard="0"
     inkscape:deskcolor="#d1d1d1"
     inkscape:document-units="mm"
     inkscape:zoom="16"
     inkscape:cx="7.28125"
     inkscape:cy="26.96875"
     inkscape:window-width="1920"
     inkscape:window-height="1057"
     inkscape:window-x="-8"
     inkscape:window-y="-8"
     inkscape:window-maximized="1"
     inkscape:current-layer="layer2"
     pagecolor="#ffffff" /><defs
     id="defs1"><clipPath
       clipPathUnits="userSpaceOnUse"
       id="clipPath3"><g
         inkscape:label="Clip"
         id="use3" /></clipPath></defs><g
     inkscape:groupmode="layer"
     id="layer2"
     inkscape:label="svg"
     transform="translate(-97.620398,-140.54438)"><path
       id="path2"
       style="fill:#595959;fill-opacity:1;stroke-width:0;stroke-dasharray:none;stroke:none"
       d="M 106.29739 149.06427 L 104.33213 149.55365 C 104.32683 150.83407 104.3218 152.15157 104.3218 153.05783 C 104.3218 154.26762 105.58618 155.61374 106.80898 155.79099 L 107.19811 153.95596 C 106.69738 153.74031 106.301 153.20206 106.301 152.70901 C 106.301 151.50689 106.29913 150.56134 106.29739 149.06427 z "
       transform="translate(1.2083333e-6)" /><path
       id="path1"
       style="display:inline;fill:#de0000;fill-opacity:1;stroke-width:0.209633"
       d="m 103.69422,142.22601 -4.423996,12.81136 2.527876,-0.0168 1.05922,-2.90416 h 4.57794 l 1.05881,2.90416 h 2.52829 l -4.4072,-12.79458 z m 1.43467,2.95534 1.6914,5.03897 h -3.34799 z" /><path
       id="path3"
       style="fill:#5a5a5a;fill-opacity:1;stroke:none;stroke-width:0;stroke-dasharray:none"
       d="m 104.35022,145.67792 c 0,0 -0.01,2.01448 -0.0181,4.14031 l 1.96526,-0.52279 c -0.002,-1.47953 -0.003,-3.60206 -0.003,-3.60206 v -5.6e-4 z" /><path
       id="path4"
       style="fill:#595959;fill-opacity:1;stroke-width:0;stroke-dasharray:none;stroke:none;fill-rule:nonzero"
       d="M 107.19811 153.95596 L 106.80898 155.79099 C 106.89804 155.8039 106.98701 155.81115 107.07512 155.81115 C 107.84098 155.81115 108.53902 155.78273 109.48789 155.78273 C 110.8315 155.78273 112.46445 154.40868 112.46445 153.06506 L 112.46445 145.67792 L 110.48679 145.67792 L 110.48679 152.74053 C 110.48679 153.35973 109.74693 154.05415 109.17318 154.05415 L 107.64614 154.05415 C 107.4925 154.05415 107.34136 154.01766 107.19811 153.95596 z "
       transform="translate(1.2083333e-6)" /><path
       style="fill:#595959;fill-opacity:1;fill-rule:nonzero;stroke:none;stroke-width:0;stroke-dasharray:none"
       d="m 107.20534,153.95855 -0.0145,-0.007 -0.39481,1.83658 0.03,0.005 z"
       id="path5" /></g></svg>
